<?xml version="1.0" encoding="UTF-8" standalone="no"?>
<svg
   xmlns:dc="http://purl.org/dc/elements/1.1/"
   xmlns:cc="http://creativecommons.org/ns#"
   xmlns:rdf="http://www.w3.org/1999/02/22-rdf-syntax-ns#"
   xmlns:svg="http://www.w3.org/2000/svg"
   xmlns="http://www.w3.org/2000/svg"
   xmlns:sodipodi="http://sodipodi.sourceforge.net/DTD/sodipodi-0.dtd"
   xmlns:inkscape="http://www.inkscape.org/namespaces/inkscape"
   width="136"
   height="136"
   version="1.1"
   id="svg8"
   sodipodi:docname="DOI_logo.svg"
   inkscape:version="0.92.5 (2060ec1f9f, 2020-04-08)">
  <metadata
     id="metadata14">
    <rdf:RDF>
      <cc:Work
         rdf:about="">
        <dc:format>image/svg+xml</dc:format>
        <dc:type
           rdf:resource="http://purl.org/dc/dcmitype/StillImage" />
        <dc:title />
      </cc:Work>
    </rdf:RDF>
  </metadata>
  <defs
     id="defs12" />
  <sodipodi:namedview
     pagecolor="#ffffff"
     bordercolor="#666666"
     borderopacity="1"
     objecttolerance="10"
     gridtolerance="10"
     guidetolerance="10"
     inkscape:pageopacity="0"
     inkscape:pageshadow="2"
     inkscape:window-width="1280"
     inkscape:window-height="959"
     id="namedview10"
     showgrid="false"
     inkscape:snap-global="false"
     inkscape:zoom="3.6307692"
     inkscape:cx="72.573672"
     inkscape:cy="39.525266"
     inkscape:window-x="1280"
     inkscape:window-y="0"
     inkscape:window-maximized="1"
     inkscape:current-layer="g925"
     fit-margin-top="0"
     fit-margin-left="0"
     fit-margin-right="0"
     fit-margin-bottom="0" />
  <circle
     style="fill:none;stroke:#44bdf2;stroke-width:8;stroke-miterlimit:4;stroke-dasharray:none;stroke-opacity:1"
     cx="68"
     cy="68"
     r="64"
     id="circle2" />
  <g
     id="g860"
     transform="translate(-261.33644,64.279663)">
    <path
       d="m 859.79999,98.200012 h 21.10003 v 72.099978 h -21.10003 z"
       id="path14"
       inkscape:connector-curvature="0"
       style="fill:#000000;stroke:none" />
  </g>
  <g
     id="Group"
     transform="matrix(0.48679463,0,0,0.49219307,8.7772903,9.7735588)">
    <g
       id="g925">
      <path
         style="fill:#44bdf2;fill-opacity:1;stroke:none"
         inkscape:connector-curvature="0"
         id="path1"
         d="M 94,62.899994 H 77.899994 V 96.299988 108.79999 C 71.100006,99.299988 63.5,94.700012 53.199997,94.700012 c -21,0 -33.300003,14.799988 -33.300003,39.499998 0,24.19998 13.600006,39.5 32.5,39.5 11.5,0 19.300003,-4.1 25.100006,-13.6 l -0.399994,10.69998 h 21 V 62.899994 Z M 59.800003,154.70001 c -11.5,0 -18.5,-7.80002 -18.5,-21 0,-13.6 7,-21.40002 18.5,-21.40002 11.099991,0 18.5,7.80002 18.5,21.40002 0,13.19998 -6.900009,21 -18.5,21 z" />
      <path
         style="fill:#44bdf2;fill-opacity:1;stroke:none"
         inkscape:connector-curvature="0"
         id="path2"
         d="m 145.5,173.60001 c -24.29999,0 -40.5,-17 -40.5,-38.9 0,-21.5 16.60001,-38.900022 40.5,-38.900022 23.89999,0 40.10001,16.600002 40.10001,38.900022 0,21.9 -16.60001,38.9 -40.10001,38.9 z m -0.39999,-58.4 c -11.70002,0 -19,7.69998 -19,19.4 0,11.69998 7.29998,19.39999 19,19.39999 11.69998,0 19,-7.70001 19,-19.39999 0.1,-11.70002 -7.20002,-19.4 -19,-19.4 z" />
      <path
         style="fill:#44bdf2;fill-opacity:1;stroke:none"
         inkscape:connector-curvature="0"
         id="path3"
         d="m 203,62.899994 c 6.89999,0 12.20001,5.300018 12.20001,12.200012 C 215.20001,82 209.5,87.700012 203,87.700012 c -6.89999,0 -12.20001,-6.100006 -12.20001,-12.600006 0.1,-6.5 5.30002,-12.200012 12.20001,-12.200012 z m -10.5,36 h 21.10001 V 171 H 192.5 Z" />
    </g>
  </g>
  <g
     id="g969"
     transform="translate(-249.2178,82.457628)">
    <path
       d="m 859.79999,98.200012 h 21.10003 v 72.099978 h -21.10003 z"
       id="path14-1"
       inkscape:connector-curvature="0"
       style="fill:#000000;stroke:none" />
  </g>
</svg>
