<?xml version="1.0" encoding="UTF-8" standalone="no"?>
<!-- Created with Inkscape (http://www.inkscape.org/) -->

<svg
   xmlns:dc="http://purl.org/dc/elements/1.1/"
   xmlns:cc="http://creativecommons.org/ns#"
   xmlns:rdf="http://www.w3.org/1999/02/22-rdf-syntax-ns#"
   xmlns:svg="http://www.w3.org/2000/svg"
   xmlns="http://www.w3.org/2000/svg"
   xmlns:sodipodi="http://sodipodi.sourceforge.net/DTD/sodipodi-0.dtd"
   xmlns:inkscape="http://www.inkscape.org/namespaces/inkscape"
   version="1.1"
   width="49.055576"
   height="36.008224"
   id="svg2"
   inkscape:version="0.48.4 r9939"
   sodipodi:docname="academia.svg">
  <sodipodi:namedview
     pagecolor="#ffffff"
     bordercolor="#666666"
     borderopacity="1"
     objecttolerance="10"
     gridtolerance="10"
     guidetolerance="10"
     inkscape:pageopacity="0"
     inkscape:pageshadow="2"
     inkscape:window-width="640"
     inkscape:window-height="480"
     id="namedview6"
     showgrid="false"
     inkscape:zoom="0.921875"
     inkscape:cx="-27.254241"
     inkscape:cy="-46.410641"
     inkscape:window-x="288"
     inkscape:window-y="280"
     inkscape:window-maximized="0"
     inkscape:current-layer="svg2"
     inkscape:snap-global="true"
     fit-margin-top="0"
     fit-margin-left="0"
     fit-margin-right="0"
     fit-margin-bottom="0" />
  <metadata
     id="metadata8">
    <rdf:RDF>
      <cc:Work
         rdf:about="">
        <dc:format>image/svg+xml</dc:format>
        <dc:type
           rdf:resource="http://purl.org/dc/dcmitype/StillImage" />
        <dc:title />
      </cc:Work>
    </rdf:RDF>
  </metadata>
  <defs
     id="defs6" />
  <path
     style="fill:#000000"
     d="m 29.22917,35.87549 c 0.0592,-0.05182 0.39848,-0.23271 0.75388,-0.401969 0.6093,-0.290177 0.61754,-0.284796 0.14446,0.09422 -0.41175,0.329881 -1.25305,0.618085 -0.89834,0.307745 z m -8.29273,-1.199583 c -2.3939,-0.650909 -3.83213,-1.173638 -8.19934,-2.980075 -0.60021,-0.24827 -1.03035,-0.550014 -0.95586,-0.670543 0.0745,-0.120529 -0.0386,-0.152373 -0.25122,-0.07077 C 10.77858,31.242871 0,25.067259 0,24.348371 0,24.097659 1.43239,23.274768 2.72279,22.78416 c 0.98359,-0.373961 0.7576,-0.0889 -0.52576,0.6632 -0.63972,0.374902 -1.16313,0.762663 -1.16313,0.861689 0,0.266165 5.02792,3.084734 9.23562,5.177339 3.04082,1.512281 10.12457,4.504548 13.3809,5.652261 1.49711,0.527663 -0.0275,0.267704 -2.71398,-0.462747 z m 10.7181,-0.727666 c 2.12202,-2.9537 2.1683,-7.341748 0.0978,-9.269571 C 30.96286,23.943602 30.05483,23.613259 27.53017,23.142615 24.6005,22.596472 20.59577,21.41243 18.51234,20.476401 14.09307,18.490931 9.43199,15.526623 6.72036,12.977048 L 5.55723,11.883424 6.59112,12.64293 c 2.15234,1.581115 4.43673,2.936163 7.46606,4.428707 5.35187,2.636851 6.21769,2.921008 15.95068,5.234909 1.46931,0.34931 3.05262,1.652717 3.65107,3.005622 0.69689,1.575416 0.52365,4.857121 -0.35444,6.714501 -0.31957,0.675986 -0.63508,1.344287 -0.70113,1.485115 -0.24063,0.513092 3.02005,-2.484272 6.36568,-5.851632 1.88583,-1.898067 4.10919,-4.361315 4.94081,-5.473887 2.95936,-3.959159 4.8168,-7.874346 4.63586,-9.771674 -0.11183,-1.172655 0.22361,-1.055886 0.45116,0.157052 0.2575,1.372601 -0.3589,4.321468 -1.32448,6.336282 -0.97091,2.02596 -2.12875,3.683814 -2.43888,3.492139 -0.1103,-0.06816 -0.18459,0.03493 -0.1651,0.229097 0.11886,1.184149 -8.47419,8.912452 -13.21487,11.885018 l -1.10199,0.690988 0.90301,-1.256926 z M 23.7552,32.60643 C 16.40962,30.226856 10.51141,27.375357 5.26621,23.667898 L 3.68284,22.548729 4.43038,19.37257 c 0.41114,-1.746888 0.85027,-3.583257 0.97583,-4.08082 l 0.2283,-0.904661 0.026,0.960393 c 0.0143,0.528216 -0.15347,2.246909 -0.37278,3.819319 -0.21932,1.572409 -0.32706,2.974936 -0.23943,3.116725 0.24653,0.398896 4.66161,3.342374 6.96874,4.64598 3.57281,2.018746 7.53369,3.846296 11.24571,5.188766 2.77046,1.001951 3.10638,1.334918 0.49249,0.488158 z M 34.69997,19.118724 c 1.74161,-1.59135 3.74813,-3.433548 4.45893,-4.093774 1.64593,-1.52881 3.21245,-2.899563 5.16781,-4.521972 l 1.54916,-1.285381 -0.81132,1.112682 c -1.47421,2.021769 -4.55176,5.250722 -6.7893,7.123287 -2.14558,1.795613 -6.10318,4.558523 -6.52963,4.558523 -0.11672,0 1.21274,-1.302014 2.95435,-2.893365 z M 8.66926,8.963139 C 15.44909,6.879531 20.47447,4.383357 23.63849,1.527712 L 25.33118,0 26.17089,0.518113 C 29.45086,2.541906 35.92578,5.505269 40.1928,6.93549 43.74045,8.124594 43.55875,8.147029 38.77119,7.111022 33.7278,6.019655 30.41641,4.792849 26.80815,2.678944 L 25.31332,1.803203 24.79277,2.464984 C 23.92372,3.569796 19.90352,6.087044 17.42168,7.080379 14.70721,8.166828 12.89352,8.663801 9.09836,9.361071 5.39715,10.04108 5.33856,9.986745 8.66926,8.963139 z"
     id="path2983"
     inkscape:connector-curvature="0" />
</svg>
