<?xml version="1.0" encoding="UTF-8" standalone="no"?>
<!-- Created with Inkscape (http://www.inkscape.org/) -->

<svg
   xmlns:dc="http://purl.org/dc/elements/1.1/"
   xmlns:cc="http://creativecommons.org/ns#"
   xmlns:rdf="http://www.w3.org/1999/02/22-rdf-syntax-ns#"
   xmlns:svg="http://www.w3.org/2000/svg"
   xmlns="http://www.w3.org/2000/svg"
   xmlns:sodipodi="http://sodipodi.sourceforge.net/DTD/sodipodi-0.dtd"
   xmlns:inkscape="http://www.inkscape.org/namespaces/inkscape"
   version="1.1"
   width="20"
   height="20"
   id="svg2"
   inkscape:version="0.48.4 r9939"
   sodipodi:docname="academia.svg">
  <sodipodi:namedview
     pagecolor="#ffffff"
     bordercolor="#666666"
     borderopacity="1"
     objecttolerance="10"
     gridtolerance="10"
     guidetolerance="10"
     inkscape:pageopacity="0"
     inkscape:pageshadow="2"
     inkscape:window-width="1366"
     inkscape:window-height="716"
     id="namedview6"
     showgrid="false"
     inkscape:zoom="14.75"
     inkscape:cx="18.656644"
     inkscape:cy="5.2824341"
     inkscape:window-x="0"
     inkscape:window-y="0"
     inkscape:window-maximized="1"
     inkscape:current-layer="svg2"
     inkscape:snap-global="true"
     fit-margin-top="0"
     fit-margin-left="0"
     fit-margin-right="0"
     fit-margin-bottom="0" />
  <metadata
     id="metadata8">
    <rdf:RDF>
      <cc:Work
         rdf:about="">
        <dc:format>image/svg+xml</dc:format>
        <dc:type
           rdf:resource="http://purl.org/dc/dcmitype/StillImage" />
        <dc:title />
      </cc:Work>
    </rdf:RDF>
  </metadata>
  <defs
     id="defs6" />
  <path
     style="fill:#000000"
     d="m 11.820921,16.92187 c 0.02293,-0.02007 0.154337,-0.09013 0.291989,-0.155689 0.235992,-0.11239 0.239183,-0.110306 0.05595,0.03649 -0.159477,0.127768 -0.485326,0.239394 -0.347941,0.119194 z M 8.609015,16.457252 C 7.6818197,16.205145 7.1247705,16.002684 5.433281,15.303022 5.2008102,15.206863 5.0342101,15.089993 5.0630613,15.04331 5.0919163,14.99663 5.0481113,14.98429 4.9657593,15.0159 4.6747147,15.127583 0.50000028,12.735671 0.50000028,12.457234 c 0,-0.0971 0.55478732,-0.415823 1.05457962,-0.605843 0.38096,-0.144841 0.2934305,-0.03443 -0.2036351,0.256868 -0.2477737,0.145205 -0.45049871,0.295391 -0.45049871,0.333745 0,0.10309 1.94739291,1.194767 3.57710161,2.005266 1.1777577,0.58573 3.9214061,1.744682 5.1826342,2.18921 0.5798551,0.204372 -0.010651,0.103686 -1.0511674,-0.17923 z m 4.15129,-0.281836 c 0.821892,-1.144015 0.839817,-2.843575 0.03788,-3.590252 -0.305779,-0.284703 -0.657473,-0.41265 -1.635314,-0.594938 C 10.028163,11.778696 8.4770681,11.320098 7.6701227,10.957559 5.9584696,10.188554 4.1531596,9.0404306 3.1029025,8.0529396 l -0.4504987,-0.423578 0.400442,0.294169 c 0.8336353,0.612391 1.7184156,1.137222 2.891723,1.7153084 2.0728639,1.021295 2.4082097,1.131354 6.1779512,2.027564 0.569087,0.135294 1.182328,0.640124 1.414117,1.164125 0.269916,0.610184 0.202818,1.88124 -0.137281,2.600633 -0.123774,0.26182 -0.245976,0.520663 -0.271558,0.575208 -0.0932,0.198729 1.169713,-0.962198 2.465528,-2.266429 0.730412,-0.735152 1.591554,-1.689207 1.913654,-2.120123 1.146207,-1.533446 1.865623,-3.0498604 1.795542,-3.7847254 -0.04331,-0.454188 0.08661,-0.408962 0.174741,0.06083 0.09973,0.531631 -0.139007,1.673773 -0.512992,2.4541434 -0.376049,0.784687 -0.824498,1.4268 -0.944616,1.352561 -0.04272,-0.0264 -0.07149,0.01353 -0.06395,0.08873 0.04604,0.45864 -3.282188,3.451934 -5.118328,4.603256 l -0.426819,0.26763 0.349751,-0.486827 z M 9.7007653,15.655711 C 6.855706,14.734065 4.5712361,13.629634 2.5396872,12.193676 L 1.926423,11.760205 2.215957,10.530027 C 2.375198,9.85343 2.54528,9.1421746 2.5939114,8.9494606 l 0.088424,-0.35039 0.01007,0.371976 c 0.00554,0.204586 -0.059441,0.8702634 -0.1443836,1.4792824 -0.084946,0.60902 -0.1266755,1.152241 -0.092735,1.207158 0.095485,0.154499 1.8055152,1.294555 2.6991032,1.799462 1.3838058,0.781892 2.9179172,1.489731 4.3556412,2.009691 1.0730438,0.388071 1.2031508,0.517035 0.1907492,0.189071 z m 4.2390827,-5.224003 c 0.674553,-0.616355 1.45171,-1.3298674 1.727014,-1.5855834 0.637495,-0.592132 1.244233,-1.123047 2.001575,-1.751431 l 0.600014,-0.4978493 -0.314237,0.4309603 c -0.570985,0.783063 -1.762969,2.033687 -2.629604,2.7589614 -0.831017,0.69547 -2.363858,1.765589 -2.529029,1.765589 -0.04521,0 0.469714,-0.50429 1.144267,-1.120647 z M 3.8577422,6.4982893 c 2.6259354,-0.807015 4.5723445,-1.773822 5.7978195,-2.879859 l 0.6556053,-0.591707 0.325233,0.200674 c 1.270385,0.783847 3.778224,1.931604 5.430908,2.485551 1.374061,0.460559 1.303685,0.469248 -0.550612,0.06799 -1.953385,-0.422704 -3.235939,-0.897865 -4.633475,-1.716614 l -0.578971,-0.339189 -0.201617,0.256319 c -0.3365972,0.427911 -1.8936843,1.402881 -2.8549401,1.787615 -1.0513572,0.420799 -1.753828,0.613284 -3.2237534,0.883348 -1.4335372,0.263378 -1.45623,0.242334 -0.1661973,-0.154125 z"
     id="path2983"
     inkscape:connector-curvature="0" />
</svg>
